<svg xmlns="http://www.w3.org/2000/svg" xmlns:xlink="http://www.w3.org/1999/xlink" width="500" zoomAndPan="magnify" viewBox="0 0 375 374.999991" height="500" preserveAspectRatio="xMidYMid meet" version="1.0"><defs><g/><clipPath id="d58f195885"><path d="M 147.132812 111.390625 L 228.132812 111.390625 L 228.132812 188.640625 L 147.132812 188.640625 Z M 147.132812 111.390625 " clip-rule="nonzero"/></clipPath><clipPath id="206e97e964"><path d="M 190.269531 155.867188 L 190.269531 121.304688 C 190.269531 119.964844 191.546875 118.996094 192.839844 119.359375 L 226.652344 128.847656 C 227.523438 129.089844 228.128906 129.886719 228.128906 130.792969 L 228.128906 165.351562 C 228.128906 166.695312 226.847656 167.664062 225.558594 167.300781 L 191.746094 157.8125 C 190.871094 157.570312 190.269531 156.773438 190.269531 155.867188 Z M 164.746094 133.417969 L 182.15625 138.304688 C 183.445312 138.667969 184.726562 137.695312 184.726562 136.355469 L 184.726562 118.589844 C 184.726562 117.683594 184.121094 116.886719 183.25 116.644531 L 165.839844 111.757812 C 164.546875 111.394531 163.269531 112.367188 163.269531 113.707031 L 163.269531 131.472656 C 163.269531 132.378906 163.871094 133.175781 164.746094 133.417969 Z M 183.25 142.410156 L 149.4375 132.921875 C 148.144531 132.558594 146.867188 133.527344 146.867188 134.867188 L 146.867188 169.429688 C 146.867188 170.335938 147.46875 171.132812 148.34375 171.375 L 182.15625 180.863281 C 183.445312 181.226562 184.726562 180.257812 184.726562 178.914062 L 184.726562 144.355469 C 184.726562 143.449219 184.121094 142.652344 183.25 142.410156 Z M 210.246094 166.804688 L 192.839844 161.917969 C 191.546875 161.554688 190.269531 162.527344 190.269531 163.867188 L 190.269531 181.632812 C 190.269531 182.539062 190.871094 183.335938 191.746094 183.578125 L 209.15625 188.464844 C 210.445312 188.828125 211.722656 187.855469 211.722656 186.515625 L 211.722656 168.75 C 211.722656 167.84375 211.121094 167.046875 210.246094 166.804688 Z M 210.246094 166.804688 " clip-rule="nonzero"/></clipPath><linearGradient x1="114.296451" gradientTransform="matrix(0, 0.162523, -0.162523, 0, 228.127229, 111.681277)" y1="-47.633948" x2="357.881273" gradientUnits="userSpaceOnUse" y2="545.829695" id="bb2ed34db9"><stop stop-opacity="1" stop-color="rgb(77.598572%, 30.999756%, 100%)" offset="0"/><stop stop-opacity="1" stop-color="rgb(77.598572%, 30.999756%, 100%)" offset="0.0625"/><stop stop-opacity="1" stop-color="rgb(77.546692%, 30.987549%, 100%)" offset="0.09375"/><stop stop-opacity="1" stop-color="rgb(77.340698%, 30.943298%, 100%)" offset="0.101562"/><stop stop-opacity="1" stop-color="rgb(77.032471%, 30.877686%, 100%)" offset="0.109375"/><stop stop-opacity="1" stop-color="rgb(76.722717%, 30.810547%, 100%)" offset="0.117188"/><stop stop-opacity="1" stop-color="rgb(76.41449%, 30.744934%, 100%)" offset="0.125"/><stop stop-opacity="1" stop-color="rgb(76.104736%, 30.679321%, 100%)" offset="0.132813"/><stop stop-opacity="1" stop-color="rgb(75.796509%, 30.612183%, 100%)" offset="0.140625"/><stop stop-opacity="1" stop-color="rgb(75.486755%, 30.54657%, 100%)" offset="0.148438"/><stop stop-opacity="1" stop-color="rgb(75.178528%, 30.479431%, 100%)" offset="0.15625"/><stop stop-opacity="1" stop-color="rgb(74.868774%, 30.413818%, 100%)" offset="0.164063"/><stop stop-opacity="1" stop-color="rgb(74.560547%, 30.348206%, 100%)" offset="0.171875"/><stop stop-opacity="1" stop-color="rgb(74.250793%, 30.281067%, 100%)" offset="0.179688"/><stop stop-opacity="1" stop-color="rgb(73.942566%, 30.215454%, 100%)" offset="0.1875"/><stop stop-opacity="1" stop-color="rgb(73.632812%, 30.148315%, 100%)" offset="0.195312"/><stop stop-opacity="1" stop-color="rgb(73.324585%, 30.082703%, 100%)" offset="0.203125"/><stop stop-opacity="1" stop-color="rgb(73.016357%, 30.01709%, 100%)" offset="0.210938"/><stop stop-opacity="1" stop-color="rgb(72.706604%, 29.949951%, 100%)" offset="0.21875"/><stop stop-opacity="1" stop-color="rgb(72.398376%, 29.884338%, 100%)" offset="0.226562"/><stop stop-opacity="1" stop-color="rgb(72.088623%, 29.818726%, 100%)" offset="0.234375"/><stop stop-opacity="1" stop-color="rgb(71.780396%, 29.751587%, 100%)" offset="0.242188"/><stop stop-opacity="1" stop-color="rgb(71.470642%, 29.685974%, 100%)" offset="0.25"/><stop stop-opacity="1" stop-color="rgb(71.162415%, 29.618835%, 100%)" offset="0.257813"/><stop stop-opacity="1" stop-color="rgb(70.852661%, 29.553223%, 100%)" offset="0.265625"/><stop stop-opacity="1" stop-color="rgb(70.544434%, 29.48761%, 100%)" offset="0.273438"/><stop stop-opacity="1" stop-color="rgb(70.23468%, 29.420471%, 100%)" offset="0.28125"/><stop stop-opacity="1" stop-color="rgb(69.926453%, 29.354858%, 100%)" offset="0.281314"/><stop stop-opacity="1" stop-color="rgb(69.772339%, 29.321289%, 100%)" offset="0.289063"/><stop stop-opacity="1" stop-color="rgb(69.616699%, 29.28772%, 100%)" offset="0.296875"/><stop stop-opacity="1" stop-color="rgb(69.308472%, 29.222107%, 100%)" offset="0.304688"/><stop stop-opacity="1" stop-color="rgb(68.998718%, 29.156494%, 100%)" offset="0.3125"/><stop stop-opacity="1" stop-color="rgb(68.690491%, 29.089355%, 100%)" offset="0.320313"/><stop stop-opacity="1" stop-color="rgb(68.380737%, 29.023743%, 100%)" offset="0.328125"/><stop stop-opacity="1" stop-color="rgb(68.07251%, 28.95813%, 100%)" offset="0.335938"/><stop stop-opacity="1" stop-color="rgb(67.762756%, 28.890991%, 100%)" offset="0.34375"/><stop stop-opacity="1" stop-color="rgb(67.454529%, 28.825378%, 100%)" offset="0.351562"/><stop stop-opacity="1" stop-color="rgb(67.146301%, 28.75824%, 100%)" offset="0.359375"/><stop stop-opacity="1" stop-color="rgb(66.836548%, 28.692627%, 100%)" offset="0.367188"/><stop stop-opacity="1" stop-color="rgb(66.52832%, 28.627014%, 100%)" offset="0.375"/><stop stop-opacity="1" stop-color="rgb(66.218567%, 28.559875%, 100%)" offset="0.382812"/><stop stop-opacity="1" stop-color="rgb(65.910339%, 28.494263%, 100%)" offset="0.390625"/><stop stop-opacity="1" stop-color="rgb(65.600586%, 28.427124%, 100%)" offset="0.398438"/><stop stop-opacity="1" stop-color="rgb(65.292358%, 28.361511%, 100%)" offset="0.40625"/><stop stop-opacity="1" stop-color="rgb(64.982605%, 28.295898%, 100%)" offset="0.414063"/><stop stop-opacity="1" stop-color="rgb(64.674377%, 28.22876%, 100%)" offset="0.421875"/><stop stop-opacity="1" stop-color="rgb(64.364624%, 28.163147%, 100%)" offset="0.429688"/><stop stop-opacity="1" stop-color="rgb(64.056396%, 28.096008%, 100%)" offset="0.4375"/><stop stop-opacity="1" stop-color="rgb(63.746643%, 28.030396%, 100%)" offset="0.445313"/><stop stop-opacity="1" stop-color="rgb(63.438416%, 27.964783%, 100%)" offset="0.453125"/><stop stop-opacity="1" stop-color="rgb(63.128662%, 27.897644%, 100%)" offset="0.460938"/><stop stop-opacity="1" stop-color="rgb(62.820435%, 27.832031%, 100%)" offset="0.46875"/><stop stop-opacity="1" stop-color="rgb(62.510681%, 27.766418%, 100%)" offset="0.476563"/><stop stop-opacity="1" stop-color="rgb(62.202454%, 27.69928%, 100%)" offset="0.484375"/><stop stop-opacity="1" stop-color="rgb(61.8927%, 27.633667%, 100%)" offset="0.492187"/><stop stop-opacity="1" stop-color="rgb(61.584473%, 27.566528%, 100%)" offset="0.5"/><stop stop-opacity="1" stop-color="rgb(61.276245%, 27.500916%, 100%)" offset="0.507812"/><stop stop-opacity="1" stop-color="rgb(60.966492%, 27.435303%, 100%)" offset="0.515625"/><stop stop-opacity="1" stop-color="rgb(60.658264%, 27.368164%, 100%)" offset="0.523438"/><stop stop-opacity="1" stop-color="rgb(60.348511%, 27.302551%, 100%)" offset="0.53125"/><stop stop-opacity="1" stop-color="rgb(60.040283%, 27.235413%, 100%)" offset="0.539062"/><stop stop-opacity="1" stop-color="rgb(59.73053%, 27.1698%, 100%)" offset="0.546875"/><stop stop-opacity="1" stop-color="rgb(59.422302%, 27.104187%, 100%)" offset="0.554688"/><stop stop-opacity="1" stop-color="rgb(59.112549%, 27.037048%, 100%)" offset="0.5625"/><stop stop-opacity="1" stop-color="rgb(58.804321%, 26.971436%, 100%)" offset="0.570312"/><stop stop-opacity="1" stop-color="rgb(58.494568%, 26.905823%, 100%)" offset="0.578125"/><stop stop-opacity="1" stop-color="rgb(58.18634%, 26.838684%, 100%)" offset="0.585938"/><stop stop-opacity="1" stop-color="rgb(57.876587%, 26.773071%, 100%)" offset="0.59375"/><stop stop-opacity="1" stop-color="rgb(57.568359%, 26.705933%, 100%)" offset="0.601562"/><stop stop-opacity="1" stop-color="rgb(57.258606%, 26.64032%, 100%)" offset="0.609375"/><stop stop-opacity="1" stop-color="rgb(56.950378%, 26.574707%, 100%)" offset="0.617188"/><stop stop-opacity="1" stop-color="rgb(56.640625%, 26.507568%, 100%)" offset="0.625"/><stop stop-opacity="1" stop-color="rgb(56.332397%, 26.441956%, 100%)" offset="0.632812"/><stop stop-opacity="1" stop-color="rgb(56.022644%, 26.374817%, 100%)" offset="0.640625"/><stop stop-opacity="1" stop-color="rgb(55.714417%, 26.309204%, 100%)" offset="0.648438"/><stop stop-opacity="1" stop-color="rgb(55.406189%, 26.243591%, 100%)" offset="0.65625"/><stop stop-opacity="1" stop-color="rgb(55.096436%, 26.176453%, 100%)" offset="0.664062"/><stop stop-opacity="1" stop-color="rgb(54.788208%, 26.11084%, 100%)" offset="0.671875"/><stop stop-opacity="1" stop-color="rgb(54.478455%, 26.043701%, 100%)" offset="0.679688"/><stop stop-opacity="1" stop-color="rgb(54.170227%, 25.978088%, 100%)" offset="0.6875"/><stop stop-opacity="1" stop-color="rgb(53.860474%, 25.912476%, 100%)" offset="0.695312"/><stop stop-opacity="1" stop-color="rgb(53.552246%, 25.845337%, 100%)" offset="0.703125"/><stop stop-opacity="1" stop-color="rgb(53.242493%, 25.779724%, 100%)" offset="0.710938"/><stop stop-opacity="1" stop-color="rgb(52.934265%, 25.714111%, 100%)" offset="0.718686"/><stop stop-opacity="1" stop-color="rgb(52.780151%, 25.680542%, 100%)" offset="0.71875"/><stop stop-opacity="1" stop-color="rgb(52.624512%, 25.646973%, 100%)" offset="0.726562"/><stop stop-opacity="1" stop-color="rgb(52.316284%, 25.58136%, 100%)" offset="0.734375"/><stop stop-opacity="1" stop-color="rgb(52.006531%, 25.514221%, 100%)" offset="0.742188"/><stop stop-opacity="1" stop-color="rgb(51.698303%, 25.448608%, 100%)" offset="0.75"/><stop stop-opacity="1" stop-color="rgb(51.38855%, 25.382996%, 100%)" offset="0.757812"/><stop stop-opacity="1" stop-color="rgb(51.080322%, 25.315857%, 100%)" offset="0.765625"/><stop stop-opacity="1" stop-color="rgb(50.770569%, 25.250244%, 100%)" offset="0.773438"/><stop stop-opacity="1" stop-color="rgb(50.462341%, 25.183105%, 100%)" offset="0.78125"/><stop stop-opacity="1" stop-color="rgb(50.152588%, 25.117493%, 100%)" offset="0.789062"/><stop stop-opacity="1" stop-color="rgb(49.84436%, 25.05188%, 100%)" offset="0.796875"/><stop stop-opacity="1" stop-color="rgb(49.536133%, 24.984741%, 100%)" offset="0.804688"/><stop stop-opacity="1" stop-color="rgb(49.226379%, 24.919128%, 100%)" offset="0.8125"/><stop stop-opacity="1" stop-color="rgb(48.918152%, 24.853516%, 100%)" offset="0.820312"/><stop stop-opacity="1" stop-color="rgb(48.608398%, 24.786377%, 100%)" offset="0.828125"/><stop stop-opacity="1" stop-color="rgb(48.326111%, 24.726868%, 100%)" offset="0.84375"/><stop stop-opacity="1" stop-color="rgb(48.199463%, 24.699402%, 100%)" offset="0.875"/><stop stop-opacity="1" stop-color="rgb(48.199463%, 24.699402%, 100%)" offset="1"/></linearGradient></defs><g fill="#ffffff" fill-opacity="1"><g transform="translate(50.389023, 241.788882)"><g><path d="M 29.171875 -22.703125 C 29.171875 -19.566406 28.09375 -17.144531 25.9375 -15.4375 C 23.78125 -13.738281 20.914062 -12.890625 17.34375 -12.890625 L 10.421875 -12.890625 C 10.128906 -12.890625 9.984375 -12.742188 9.984375 -12.453125 L 9.984375 -0.875 C 9.984375 -0.289062 9.660156 0 9.015625 0 L 4.265625 0 C 3.734375 0 3.46875 -0.265625 3.46875 -0.796875 L 3.46875 -31.90625 C 3.46875 -32.394531 3.691406 -32.640625 4.140625 -32.640625 L 16.59375 -32.640625 C 20.3125 -32.640625 23.335938 -31.800781 25.671875 -30.125 C 28.003906 -28.457031 29.171875 -25.984375 29.171875 -22.703125 Z M 22.484375 -22.84375 C 22.484375 -24.570312 21.925781 -25.851562 20.8125 -26.6875 C 19.695312 -27.519531 18.171875 -27.9375 16.234375 -27.9375 L 10.734375 -27.9375 C 10.234375 -27.9375 9.984375 -27.703125 9.984375 -27.234375 L 9.984375 -18.34375 C 9.984375 -18.082031 10.023438 -17.890625 10.109375 -17.765625 C 10.203125 -17.648438 10.351562 -17.59375 10.5625 -17.59375 L 16.5 -17.59375 C 18.34375 -17.59375 19.800781 -18.039062 20.875 -18.9375 C 21.945312 -19.832031 22.484375 -21.132812 22.484375 -22.84375 Z M 22.484375 -22.84375 "/></g></g></g><g fill="#ffffff" fill-opacity="1"><g transform="translate(81.447485, 241.788882)"><g><path d="M 21.875 -25.515625 C 21.082031 -26.429688 20.15625 -27.144531 19.09375 -27.65625 C 18.039062 -28.164062 16.691406 -28.421875 15.046875 -28.421875 C 13.109375 -28.421875 11.617188 -28.046875 10.578125 -27.296875 C 9.535156 -26.554688 9.015625 -25.539062 9.015625 -24.25 C 9.015625 -22.457031 10.320312 -21.148438 12.9375 -20.328125 L 19.71875 -18.296875 C 24.789062 -16.773438 27.328125 -13.769531 27.328125 -9.28125 C 27.328125 -7.320312 26.8125 -5.609375 25.78125 -4.140625 C 24.757812 -2.671875 23.300781 -1.539062 21.40625 -0.75 C 19.507812 0.0390625 17.273438 0.4375 14.703125 0.4375 C 11.828125 0.4375 9.257812 -0.0507812 7 -1.03125 C 4.738281 -2.019531 3.019531 -3.40625 1.84375 -5.1875 C 1.726562 -5.476562 1.671875 -5.65625 1.671875 -5.71875 C 1.671875 -5.957031 1.816406 -6.175781 2.109375 -6.375 L 4.890625 -8.3125 C 5.210938 -8.488281 5.457031 -8.578125 5.625 -8.578125 C 5.863281 -8.578125 6.054688 -8.472656 6.203125 -8.265625 C 7.347656 -6.773438 8.5 -5.722656 9.65625 -5.109375 C 10.8125 -4.492188 12.359375 -4.1875 14.296875 -4.1875 C 16.410156 -4.1875 18.066406 -4.535156 19.265625 -5.234375 C 20.472656 -5.941406 21.078125 -7.015625 21.078125 -8.453125 C 21.078125 -9.390625 20.773438 -10.179688 20.171875 -10.828125 C 19.566406 -11.472656 18.503906 -12.046875 16.984375 -12.546875 L 10.34375 -14.5625 C 7.90625 -15.289062 6.039062 -16.453125 4.75 -18.046875 C 3.457031 -19.648438 2.8125 -21.453125 2.8125 -23.453125 C 2.8125 -25.328125 3.3125 -26.988281 4.3125 -28.4375 C 5.3125 -29.894531 6.726562 -31.035156 8.5625 -31.859375 C 10.394531 -32.679688 12.515625 -33.09375 14.921875 -33.09375 C 17.234375 -33.09375 19.363281 -32.6875 21.3125 -31.875 C 23.269531 -31.070312 24.816406 -29.96875 25.953125 -28.5625 C 26.128906 -28.320312 26.21875 -28.128906 26.21875 -27.984375 C 26.21875 -27.835938 26.128906 -27.691406 25.953125 -27.546875 L 22.84375 -25.21875 C 22.71875 -25.125 22.597656 -25.078125 22.484375 -25.078125 C 22.335938 -25.078125 22.132812 -25.222656 21.875 -25.515625 Z M 21.875 -25.515625 "/></g></g></g><g fill="#ffffff" fill-opacity="1"><g transform="translate(110.702266, 241.788882)"><g/></g></g><g fill="#ffffff" fill-opacity="1"><g transform="translate(119.896632, 241.788882)"><g><path d="M 21.875 -25.515625 C 21.082031 -26.429688 20.15625 -27.144531 19.09375 -27.65625 C 18.039062 -28.164062 16.691406 -28.421875 15.046875 -28.421875 C 13.109375 -28.421875 11.617188 -28.046875 10.578125 -27.296875 C 9.535156 -26.554688 9.015625 -25.539062 9.015625 -24.25 C 9.015625 -22.457031 10.320312 -21.148438 12.9375 -20.328125 L 19.71875 -18.296875 C 24.789062 -16.773438 27.328125 -13.769531 27.328125 -9.28125 C 27.328125 -7.320312 26.8125 -5.609375 25.78125 -4.140625 C 24.757812 -2.671875 23.300781 -1.539062 21.40625 -0.75 C 19.507812 0.0390625 17.273438 0.4375 14.703125 0.4375 C 11.828125 0.4375 9.257812 -0.0507812 7 -1.03125 C 4.738281 -2.019531 3.019531 -3.40625 1.84375 -5.1875 C 1.726562 -5.476562 1.671875 -5.65625 1.671875 -5.71875 C 1.671875 -5.957031 1.816406 -6.175781 2.109375 -6.375 L 4.890625 -8.3125 C 5.210938 -8.488281 5.457031 -8.578125 5.625 -8.578125 C 5.863281 -8.578125 6.054688 -8.472656 6.203125 -8.265625 C 7.347656 -6.773438 8.5 -5.722656 9.65625 -5.109375 C 10.8125 -4.492188 12.359375 -4.1875 14.296875 -4.1875 C 16.410156 -4.1875 18.066406 -4.535156 19.265625 -5.234375 C 20.472656 -5.941406 21.078125 -7.015625 21.078125 -8.453125 C 21.078125 -9.390625 20.773438 -10.179688 20.171875 -10.828125 C 19.566406 -11.472656 18.503906 -12.046875 16.984375 -12.546875 L 10.34375 -14.5625 C 7.90625 -15.289062 6.039062 -16.453125 4.75 -18.046875 C 3.457031 -19.648438 2.8125 -21.453125 2.8125 -23.453125 C 2.8125 -25.328125 3.3125 -26.988281 4.3125 -28.4375 C 5.3125 -29.894531 6.726562 -31.035156 8.5625 -31.859375 C 10.394531 -32.679688 12.515625 -33.09375 14.921875 -33.09375 C 17.234375 -33.09375 19.363281 -32.6875 21.3125 -31.875 C 23.269531 -31.070312 24.816406 -29.96875 25.953125 -28.5625 C 26.128906 -28.320312 26.21875 -28.128906 26.21875 -27.984375 C 26.21875 -27.835938 26.128906 -27.691406 25.953125 -27.546875 L 22.84375 -25.21875 C 22.71875 -25.125 22.597656 -25.078125 22.484375 -25.078125 C 22.335938 -25.078125 22.132812 -25.222656 21.875 -25.515625 Z M 21.875 -25.515625 "/></g></g></g><g fill="#ffffff" fill-opacity="1"><g transform="translate(149.151414, 241.788882)"><g><path d="M 11.3125 -19.3125 C 11.019531 -19.3125 10.875 -19.148438 10.875 -18.828125 L 10.875 -7.078125 C 10.875 -5.960938 11.097656 -5.175781 11.546875 -4.71875 C 12.003906 -4.269531 12.742188 -4.046875 13.765625 -4.046875 L 16.375 -4.046875 C 16.539062 -4.046875 16.679688 -3.988281 16.796875 -3.875 C 16.921875 -3.757812 16.984375 -3.613281 16.984375 -3.4375 L 16.9375 -1.140625 C 16.9375 -0.640625 16.660156 -0.347656 16.109375 -0.265625 C 15.046875 -0.0859375 13.429688 0 11.265625 0 C 9.265625 0 7.742188 -0.457031 6.703125 -1.375 C 5.660156 -2.300781 5.140625 -3.707031 5.140625 -5.59375 L 5.140625 -18.75 C 5.140625 -19.125 4.96875 -19.3125 4.625 -19.3125 L 1.671875 -19.3125 C 1.203125 -19.3125 0.96875 -19.53125 0.96875 -19.96875 L 0.96875 -22.75 C 0.96875 -23.125 1.1875 -23.3125 1.625 -23.3125 L 4.890625 -23.3125 C 5.148438 -23.3125 5.28125 -23.460938 5.28125 -23.765625 L 5.859375 -30.53125 C 5.878906 -30.800781 5.929688 -30.984375 6.015625 -31.078125 C 6.109375 -31.179688 6.257812 -31.234375 6.46875 -31.234375 L 10.390625 -31.234375 C 10.554688 -31.234375 10.695312 -31.164062 10.8125 -31.03125 C 10.9375 -30.90625 11 -30.722656 11 -30.484375 L 11 -23.765625 C 11 -23.492188 11.128906 -23.359375 11.390625 -23.359375 L 16.375 -23.359375 C 16.8125 -23.359375 17.03125 -23.15625 17.03125 -22.75 L 17.03125 -19.96875 C 17.03125 -19.53125 16.78125 -19.3125 16.28125 -19.3125 Z M 11.3125 -19.3125 "/></g></g></g><g fill="#ffffff" fill-opacity="1"><g transform="translate(167.496143, 241.788882)"><g><path d="M 13.15625 0.4375 C 10.894531 0.4375 8.882812 -0.0664062 7.125 -1.078125 C 5.363281 -2.085938 4 -3.5 3.03125 -5.3125 C 2.0625 -7.132812 1.578125 -9.207031 1.578125 -11.53125 C 1.578125 -13.90625 2.078125 -16.023438 3.078125 -17.890625 C 4.078125 -19.753906 5.457031 -21.195312 7.21875 -22.21875 C 8.976562 -23.25 10.972656 -23.765625 13.203125 -23.765625 C 15.460938 -23.765625 17.472656 -23.242188 19.234375 -22.203125 C 20.992188 -21.160156 22.351562 -19.710938 23.3125 -17.859375 C 24.28125 -16.015625 24.765625 -13.921875 24.765625 -11.578125 C 24.765625 -9.253906 24.273438 -7.179688 23.296875 -5.359375 C 22.316406 -3.546875 20.945312 -2.125 19.1875 -1.09375 C 17.425781 -0.0703125 15.414062 0.4375 13.15625 0.4375 Z M 13.203125 -3.46875 C 15.078125 -3.46875 16.503906 -4.171875 17.484375 -5.578125 C 18.472656 -6.992188 18.96875 -9.019531 18.96875 -11.65625 C 18.96875 -14.320312 18.46875 -16.375 17.46875 -17.8125 C 16.46875 -19.25 15.046875 -19.96875 13.203125 -19.96875 C 11.347656 -19.96875 9.914062 -19.25 8.90625 -17.8125 C 7.894531 -16.375 7.390625 -14.320312 7.390625 -11.65625 C 7.390625 -9.019531 7.894531 -6.992188 8.90625 -5.578125 C 9.914062 -4.171875 11.347656 -3.46875 13.203125 -3.46875 Z M 13.203125 -3.46875 "/></g></g></g><g fill="#ffffff" fill-opacity="1"><g transform="translate(193.847445, 241.788882)"><g><path d="M 3.5625 0 C 3.03125 0 2.765625 -0.265625 2.765625 -0.796875 L 2.765625 -22.578125 C 2.765625 -23.066406 2.972656 -23.3125 3.390625 -23.3125 L 7.65625 -23.3125 C 8.0625 -23.3125 8.265625 -23.09375 8.265625 -22.65625 L 8.265625 -19.96875 C 8.265625 -19.738281 8.335938 -19.625 8.484375 -19.625 C 8.578125 -19.625 8.695312 -19.695312 8.84375 -19.84375 C 9.8125 -21.070312 10.878906 -22.03125 12.046875 -22.71875 C 13.222656 -23.414062 14.367188 -23.765625 15.484375 -23.765625 C 16.546875 -23.765625 17.078125 -23.53125 17.078125 -23.0625 L 17.078125 -18.828125 C 17.078125 -18.421875 16.882812 -18.242188 16.5 -18.296875 C 15.675781 -18.503906 14.765625 -18.609375 13.765625 -18.609375 C 13.003906 -18.609375 12.207031 -18.398438 11.375 -17.984375 C 10.539062 -17.578125 9.847656 -17.046875 9.296875 -16.390625 C 8.753906 -15.734375 8.484375 -15.050781 8.484375 -14.34375 L 8.484375 -0.875 C 8.484375 -0.289062 8.148438 0 7.484375 0 Z M 3.5625 0 "/></g></g></g><g fill="#ffffff" fill-opacity="1"><g transform="translate(211.928227, 241.788882)"><g><path d="M 7.53125 -9.859375 C 7.53125 -8.648438 7.804688 -7.566406 8.359375 -6.609375 C 8.921875 -5.660156 9.691406 -4.914062 10.671875 -4.375 C 11.648438 -3.832031 12.726562 -3.5625 13.90625 -3.5625 C 15.101562 -3.5625 16.191406 -3.816406 17.171875 -4.328125 C 18.160156 -4.847656 19.09375 -5.648438 19.96875 -6.734375 C 20.125 -6.878906 20.242188 -6.953125 20.328125 -6.953125 C 20.410156 -6.953125 20.539062 -6.90625 20.71875 -6.8125 L 23.40625 -5.625 C 23.613281 -5.539062 23.71875 -5.410156 23.71875 -5.234375 C 23.71875 -5.148438 23.660156 -5.019531 23.546875 -4.84375 C 22.222656 -2.9375 20.757812 -1.578125 19.15625 -0.765625 C 17.5625 0.0351562 15.59375 0.4375 13.25 0.4375 C 11.019531 0.4375 9.015625 -0.0546875 7.234375 -1.046875 C 5.460938 -2.046875 4.078125 -3.441406 3.078125 -5.234375 C 2.078125 -7.023438 1.578125 -9.066406 1.578125 -11.359375 C 1.578125 -13.816406 2.085938 -15.984375 3.109375 -17.859375 C 4.140625 -19.742188 5.535156 -21.195312 7.296875 -22.21875 C 9.054688 -23.25 11.007812 -23.765625 13.15625 -23.765625 C 15.351562 -23.765625 17.296875 -23.28125 18.984375 -22.3125 C 20.671875 -21.34375 21.972656 -19.941406 22.890625 -18.109375 C 23.816406 -16.273438 24.28125 -14.097656 24.28125 -11.578125 L 24.28125 -11.390625 C 24.28125 -11.097656 24.238281 -10.894531 24.15625 -10.78125 C 24.070312 -10.664062 23.878906 -10.59375 23.578125 -10.5625 L 8.015625 -10.5625 C 7.691406 -10.5625 7.53125 -10.328125 7.53125 -9.859375 Z M 17.953125 -13.8125 C 18.242188 -13.8125 18.441406 -13.847656 18.546875 -13.921875 C 18.648438 -13.992188 18.703125 -14.164062 18.703125 -14.4375 C 18.703125 -15.375 18.492188 -16.28125 18.078125 -17.15625 C 17.671875 -18.039062 17.0625 -18.757812 16.25 -19.3125 C 15.445312 -19.875 14.488281 -20.15625 13.375 -20.15625 C 11.644531 -20.15625 10.242188 -19.546875 9.171875 -18.328125 C 8.097656 -17.109375 7.578125 -15.601562 7.609375 -13.8125 Z M 17.953125 -13.8125 "/></g></g></g><g fill="#ffffff" fill-opacity="1"><g transform="translate(237.619651, 241.788882)"><g/></g></g><g fill="#ffffff" fill-opacity="1"><g transform="translate(246.814029, 241.788882)"><g><path d="M 2.203125 0 C 1.816406 0 1.625 -0.203125 1.625 -0.609375 C 1.625 -0.703125 1.65625 -0.863281 1.71875 -1.09375 L 12.796875 -31.859375 C 12.921875 -32.148438 13.054688 -32.351562 13.203125 -32.46875 C 13.347656 -32.582031 13.566406 -32.640625 13.859375 -32.640625 L 19.359375 -32.640625 C 20.003906 -32.640625 20.414062 -32.347656 20.59375 -31.765625 L 31.59375 -1.0625 C 31.65625 -0.882812 31.6875 -0.75 31.6875 -0.65625 C 31.6875 -0.476562 31.632812 -0.320312 31.53125 -0.1875 C 31.425781 -0.0625 31.285156 0 31.109375 0 L 25.78125 0 C 25.375 0 25.109375 -0.191406 24.984375 -0.578125 L 22.4375 -7.703125 C 22.382812 -7.847656 22.328125 -7.957031 22.265625 -8.03125 C 22.203125 -8.101562 22.082031 -8.140625 21.90625 -8.140625 L 10.421875 -8.140625 C 10.160156 -8.140625 9.988281 -8.007812 9.90625 -7.75 L 7.265625 -0.53125 C 7.171875 -0.175781 6.90625 0 6.46875 0 Z M 20.328125 -13.109375 C 20.585938 -13.109375 20.71875 -13.226562 20.71875 -13.46875 C 20.71875 -13.613281 20.707031 -13.726562 20.6875 -13.8125 L 16.453125 -25.5625 C 16.367188 -25.769531 16.265625 -25.875 16.140625 -25.875 C 16.023438 -25.875 15.925781 -25.753906 15.84375 -25.515625 L 11.578125 -13.8125 C 11.515625 -13.632812 11.484375 -13.503906 11.484375 -13.421875 C 11.484375 -13.210938 11.628906 -13.109375 11.921875 -13.109375 Z M 20.328125 -13.109375 "/></g></g></g><g fill="#ffffff" fill-opacity="1"><g transform="translate(280.072113, 241.788882)"><g><path d="M 29.171875 -22.703125 C 29.171875 -19.566406 28.09375 -17.144531 25.9375 -15.4375 C 23.78125 -13.738281 20.914062 -12.890625 17.34375 -12.890625 L 10.421875 -12.890625 C 10.128906 -12.890625 9.984375 -12.742188 9.984375 -12.453125 L 9.984375 -0.875 C 9.984375 -0.289062 9.660156 0 9.015625 0 L 4.265625 0 C 3.734375 0 3.46875 -0.265625 3.46875 -0.796875 L 3.46875 -31.90625 C 3.46875 -32.394531 3.691406 -32.640625 4.140625 -32.640625 L 16.59375 -32.640625 C 20.3125 -32.640625 23.335938 -31.800781 25.671875 -30.125 C 28.003906 -28.457031 29.171875 -25.984375 29.171875 -22.703125 Z M 22.484375 -22.84375 C 22.484375 -24.570312 21.925781 -25.851562 20.8125 -26.6875 C 19.695312 -27.519531 18.171875 -27.9375 16.234375 -27.9375 L 10.734375 -27.9375 C 10.234375 -27.9375 9.984375 -27.703125 9.984375 -27.234375 L 9.984375 -18.34375 C 9.984375 -18.082031 10.023438 -17.890625 10.109375 -17.765625 C 10.203125 -17.648438 10.351562 -17.59375 10.5625 -17.59375 L 16.5 -17.59375 C 18.34375 -17.59375 19.800781 -18.039062 20.875 -18.9375 C 21.945312 -19.832031 22.484375 -21.132812 22.484375 -22.84375 Z M 22.484375 -22.84375 "/></g></g></g><g fill="#ffffff" fill-opacity="1"><g transform="translate(311.130575, 241.788882)"><g><path d="M 9.375 -32.640625 C 9.78125 -32.640625 9.984375 -32.40625 9.984375 -31.9375 L 9.984375 -0.96875 C 9.984375 -0.613281 9.898438 -0.363281 9.734375 -0.21875 C 9.578125 -0.0703125 9.3125 0 8.9375 0 L 4.359375 0 C 4.003906 0 3.765625 -0.0546875 3.640625 -0.171875 C 3.523438 -0.296875 3.46875 -0.503906 3.46875 -0.796875 L 3.46875 -31.90625 C 3.46875 -32.394531 3.691406 -32.640625 4.140625 -32.640625 Z M 9.375 -32.640625 "/></g></g></g><g fill="#c64fff" fill-opacity="1"><g transform="translate(149.084329, 265.988889)"><g><path d="M 8.75 -0.71875 C 8.8125 -0.613281 8.84375 -0.503906 8.84375 -0.390625 C 8.84375 -0.253906 8.789062 -0.140625 8.6875 -0.046875 C 8.582031 0.0351562 8.457031 0.078125 8.3125 0.078125 C 8.101562 0.078125 7.9375 -0.015625 7.8125 -0.203125 L 5.9375 -3.15625 C 5.695312 -3.539062 5.441406 -3.804688 5.171875 -3.953125 C 4.910156 -4.097656 4.554688 -4.171875 4.109375 -4.171875 L 2.359375 -4.171875 L 2.359375 -0.515625 C 2.359375 -0.335938 2.304688 -0.195312 2.203125 -0.09375 C 2.097656 0.0078125 1.960938 0.0625 1.796875 0.0625 C 1.617188 0.0625 1.476562 0.0078125 1.375 -0.09375 C 1.269531 -0.195312 1.21875 -0.335938 1.21875 -0.515625 L 1.21875 -9.3125 C 1.21875 -9.476562 1.269531 -9.613281 1.375 -9.71875 C 1.488281 -9.820312 1.632812 -9.875 1.8125 -9.875 L 5.28125 -9.875 C 6.351562 -9.875 7.171875 -9.632812 7.734375 -9.15625 C 8.296875 -8.675781 8.578125 -7.976562 8.578125 -7.0625 C 8.578125 -6.269531 8.347656 -5.632812 7.890625 -5.15625 C 7.441406 -4.6875 6.800781 -4.398438 5.96875 -4.296875 C 6.195312 -4.222656 6.40625 -4.101562 6.59375 -3.9375 C 6.78125 -3.769531 6.96875 -3.535156 7.15625 -3.234375 Z M 5.1875 -5.125 C 5.945312 -5.125 6.515625 -5.28125 6.890625 -5.59375 C 7.273438 -5.914062 7.46875 -6.398438 7.46875 -7.046875 C 7.46875 -7.679688 7.28125 -8.148438 6.90625 -8.453125 C 6.53125 -8.765625 5.957031 -8.921875 5.1875 -8.921875 L 2.359375 -8.921875 L 2.359375 -5.125 Z M 5.1875 -5.125 "/></g></g></g><g fill="#c64fff" fill-opacity="1"><g transform="translate(158.682969, 265.988889)"><g><path d="M 1.8125 0 C 1.632812 0 1.488281 -0.0507812 1.375 -0.15625 C 1.269531 -0.257812 1.21875 -0.394531 1.21875 -0.5625 L 1.21875 -9.3125 C 1.21875 -9.476562 1.269531 -9.613281 1.375 -9.71875 C 1.488281 -9.820312 1.632812 -9.875 1.8125 -9.875 L 7.046875 -9.875 C 7.210938 -9.875 7.34375 -9.832031 7.4375 -9.75 C 7.53125 -9.664062 7.578125 -9.546875 7.578125 -9.390625 C 7.578125 -9.242188 7.53125 -9.128906 7.4375 -9.046875 C 7.34375 -8.960938 7.210938 -8.921875 7.046875 -8.921875 L 2.359375 -8.921875 L 2.359375 -5.484375 L 6.765625 -5.484375 C 6.929688 -5.484375 7.0625 -5.441406 7.15625 -5.359375 C 7.25 -5.273438 7.296875 -5.160156 7.296875 -5.015625 C 7.296875 -4.859375 7.25 -4.738281 7.15625 -4.65625 C 7.0625 -4.570312 6.929688 -4.53125 6.765625 -4.53125 L 2.359375 -4.53125 L 2.359375 -0.953125 L 7.046875 -0.953125 C 7.210938 -0.953125 7.34375 -0.910156 7.4375 -0.828125 C 7.53125 -0.753906 7.578125 -0.632812 7.578125 -0.46875 C 7.578125 -0.320312 7.53125 -0.207031 7.4375 -0.125 C 7.34375 -0.0390625 7.210938 0 7.046875 0 Z M 1.8125 0 "/></g></g></g><g fill="#c64fff" fill-opacity="1"><g transform="translate(166.826424, 265.988889)"><g><path d="M 4.375 0.109375 C 3.664062 0.109375 2.992188 0.00390625 2.359375 -0.203125 C 1.722656 -0.410156 1.210938 -0.691406 0.828125 -1.046875 C 0.679688 -1.179688 0.609375 -1.347656 0.609375 -1.546875 C 0.609375 -1.671875 0.644531 -1.78125 0.71875 -1.875 C 0.800781 -1.976562 0.894531 -2.03125 1 -2.03125 C 1.113281 -2.03125 1.242188 -1.976562 1.390625 -1.875 C 2.253906 -1.207031 3.242188 -0.875 4.359375 -0.875 C 5.160156 -0.875 5.773438 -1.023438 6.203125 -1.328125 C 6.628906 -1.640625 6.84375 -2.078125 6.84375 -2.640625 C 6.84375 -2.972656 6.738281 -3.238281 6.53125 -3.4375 C 6.332031 -3.632812 6.0625 -3.796875 5.71875 -3.921875 C 5.382812 -4.046875 4.9375 -4.171875 4.375 -4.296875 C 3.601562 -4.472656 2.972656 -4.660156 2.484375 -4.859375 C 1.992188 -5.054688 1.597656 -5.335938 1.296875 -5.703125 C 0.992188 -6.066406 0.84375 -6.539062 0.84375 -7.125 C 0.84375 -7.6875 0.992188 -8.179688 1.296875 -8.609375 C 1.597656 -9.046875 2.019531 -9.382812 2.5625 -9.625 C 3.113281 -9.863281 3.738281 -9.984375 4.4375 -9.984375 C 5.09375 -9.984375 5.703125 -9.878906 6.265625 -9.671875 C 6.828125 -9.472656 7.300781 -9.1875 7.6875 -8.8125 C 7.832031 -8.664062 7.90625 -8.503906 7.90625 -8.328125 C 7.90625 -8.203125 7.867188 -8.085938 7.796875 -7.984375 C 7.722656 -7.890625 7.632812 -7.84375 7.53125 -7.84375 C 7.425781 -7.84375 7.289062 -7.894531 7.125 -8 C 6.664062 -8.363281 6.238281 -8.617188 5.84375 -8.765625 C 5.457031 -8.921875 4.988281 -9 4.4375 -9 C 3.664062 -9 3.0625 -8.835938 2.625 -8.515625 C 2.195312 -8.191406 1.984375 -7.742188 1.984375 -7.171875 C 1.984375 -6.671875 2.171875 -6.296875 2.546875 -6.046875 C 2.929688 -5.804688 3.515625 -5.59375 4.296875 -5.40625 C 5.148438 -5.195312 5.816406 -5.003906 6.296875 -4.828125 C 6.785156 -4.660156 7.191406 -4.40625 7.515625 -4.0625 C 7.835938 -3.71875 8 -3.253906 8 -2.671875 C 8 -2.117188 7.84375 -1.632812 7.53125 -1.21875 C 7.226562 -0.800781 6.800781 -0.472656 6.25 -0.234375 C 5.707031 -0.00390625 5.082031 0.109375 4.375 0.109375 Z M 4.375 0.109375 "/></g></g></g><g fill="#c64fff" fill-opacity="1"><g transform="translate(175.459606, 265.988889)"><g><path d="M 4.1875 0.0625 C 4.007812 0.0625 3.863281 0.0078125 3.75 -0.09375 C 3.644531 -0.195312 3.59375 -0.335938 3.59375 -0.515625 L 3.59375 -8.890625 L 0.59375 -8.890625 C 0.425781 -8.890625 0.296875 -8.929688 0.203125 -9.015625 C 0.109375 -9.097656 0.0625 -9.21875 0.0625 -9.375 C 0.0625 -9.539062 0.109375 -9.664062 0.203125 -9.75 C 0.296875 -9.832031 0.425781 -9.875 0.59375 -9.875 L 7.765625 -9.875 C 7.929688 -9.875 8.0625 -9.832031 8.15625 -9.75 C 8.25 -9.664062 8.296875 -9.539062 8.296875 -9.375 C 8.296875 -9.21875 8.25 -9.097656 8.15625 -9.015625 C 8.0625 -8.929688 7.929688 -8.890625 7.765625 -8.890625 L 4.765625 -8.890625 L 4.765625 -0.515625 C 4.765625 -0.335938 4.710938 -0.195312 4.609375 -0.09375 C 4.503906 0.0078125 4.363281 0.0625 4.1875 0.0625 Z M 4.1875 0.0625 "/></g></g></g><g fill="#c64fff" fill-opacity="1"><g transform="translate(183.82693, 265.988889)"><g><path d="M 4.0625 -8.96875 C 3.5625 -8.9375 3.1875 -8.78125 2.9375 -8.5 C 2.6875 -8.226562 2.5625 -7.816406 2.5625 -7.265625 L 2.5625 -6.8125 L 4.109375 -6.8125 C 4.273438 -6.8125 4.398438 -6.769531 4.484375 -6.6875 C 4.566406 -6.601562 4.609375 -6.492188 4.609375 -6.359375 C 4.609375 -6.210938 4.566406 -6.101562 4.484375 -6.03125 C 4.398438 -5.957031 4.273438 -5.921875 4.109375 -5.921875 L 2.5625 -5.921875 L 2.5625 -0.484375 C 2.5625 -0.304688 2.503906 -0.171875 2.390625 -0.078125 C 2.285156 0.015625 2.15625 0.0625 2 0.0625 C 1.832031 0.0625 1.691406 0.015625 1.578125 -0.078125 C 1.472656 -0.171875 1.421875 -0.304688 1.421875 -0.484375 L 1.421875 -5.921875 L 0.484375 -5.921875 C 0.328125 -5.921875 0.203125 -5.957031 0.109375 -6.03125 C 0.0234375 -6.113281 -0.015625 -6.222656 -0.015625 -6.359375 C -0.015625 -6.492188 0.0234375 -6.601562 0.109375 -6.6875 C 0.203125 -6.769531 0.328125 -6.8125 0.484375 -6.8125 L 1.421875 -6.8125 L 1.421875 -7.0625 C 1.421875 -7.90625 1.628906 -8.566406 2.046875 -9.046875 C 2.472656 -9.523438 3.078125 -9.796875 3.859375 -9.859375 L 4.234375 -9.890625 C 4.472656 -9.898438 4.644531 -9.875 4.75 -9.8125 C 4.851562 -9.75 4.90625 -9.632812 4.90625 -9.46875 C 4.90625 -9.195312 4.742188 -9.039062 4.421875 -9 Z M 4.0625 -8.96875 "/></g></g></g><g fill="#c64fff" fill-opacity="1"><g transform="translate(188.416365, 265.988889)"><g><path d="M 6.234375 -6.953125 C 6.410156 -6.953125 6.546875 -6.898438 6.640625 -6.796875 C 6.742188 -6.703125 6.796875 -6.566406 6.796875 -6.390625 L 6.796875 -0.46875 C 6.796875 -0.3125 6.742188 -0.179688 6.640625 -0.078125 C 6.546875 0.015625 6.410156 0.0625 6.234375 0.0625 C 6.066406 0.0625 5.929688 0.015625 5.828125 -0.078125 C 5.734375 -0.171875 5.6875 -0.300781 5.6875 -0.46875 L 5.6875 -1.15625 C 5.46875 -0.75 5.164062 -0.4375 4.78125 -0.21875 C 4.394531 -0.0078125 3.957031 0.09375 3.46875 0.09375 C 2.65625 0.09375 2.039062 -0.128906 1.625 -0.578125 C 1.21875 -1.035156 1.015625 -1.707031 1.015625 -2.59375 L 1.015625 -6.390625 C 1.015625 -6.566406 1.066406 -6.703125 1.171875 -6.796875 C 1.273438 -6.898438 1.414062 -6.953125 1.59375 -6.953125 C 1.769531 -6.953125 1.90625 -6.898438 2 -6.796875 C 2.101562 -6.703125 2.15625 -6.566406 2.15625 -6.390625 L 2.15625 -2.625 C 2.15625 -2.007812 2.273438 -1.5625 2.515625 -1.28125 C 2.765625 -1 3.148438 -0.859375 3.671875 -0.859375 C 4.265625 -0.859375 4.742188 -1.050781 5.109375 -1.4375 C 5.472656 -1.820312 5.65625 -2.332031 5.65625 -2.96875 L 5.65625 -6.390625 C 5.65625 -6.566406 5.707031 -6.703125 5.8125 -6.796875 C 5.914062 -6.898438 6.054688 -6.953125 6.234375 -6.953125 Z M 6.234375 -6.953125 "/></g></g></g><g fill="#c64fff" fill-opacity="1"><g transform="translate(196.265982, 265.988889)"><g><path d="M 1.625 0.0625 C 1.457031 0.0625 1.316406 0.015625 1.203125 -0.078125 C 1.097656 -0.171875 1.046875 -0.304688 1.046875 -0.484375 L 1.046875 -9.375 C 1.046875 -9.550781 1.097656 -9.6875 1.203125 -9.78125 C 1.316406 -9.882812 1.457031 -9.9375 1.625 -9.9375 C 1.78125 -9.9375 1.910156 -9.882812 2.015625 -9.78125 C 2.128906 -9.6875 2.1875 -9.550781 2.1875 -9.375 L 2.1875 -0.484375 C 2.1875 -0.304688 2.128906 -0.171875 2.015625 -0.078125 C 1.910156 0.015625 1.78125 0.0625 1.625 0.0625 Z M 1.625 0.0625 "/></g></g></g><g fill="#c64fff" fill-opacity="1"><g transform="translate(199.512167, 265.988889)"><g/></g></g><g fill="#c64fff" fill-opacity="1"><g transform="translate(203.122148, 265.988889)"><g><path d="M 9.71875 -0.65625 C 9.75 -0.582031 9.765625 -0.503906 9.765625 -0.421875 C 9.765625 -0.273438 9.710938 -0.15625 9.609375 -0.0625 C 9.503906 0.0195312 9.375 0.0625 9.21875 0.0625 C 8.988281 0.0625 8.828125 -0.046875 8.734375 -0.265625 L 7.734375 -2.53125 L 2.46875 -2.53125 L 1.453125 -0.265625 C 1.359375 -0.046875 1.195312 0.0625 0.96875 0.0625 C 0.8125 0.0625 0.675781 0.015625 0.5625 -0.078125 C 0.457031 -0.171875 0.40625 -0.289062 0.40625 -0.4375 C 0.40625 -0.507812 0.425781 -0.582031 0.46875 -0.65625 L 4.46875 -9.5625 C 4.519531 -9.695312 4.601562 -9.796875 4.71875 -9.859375 C 4.832031 -9.921875 4.953125 -9.953125 5.078125 -9.953125 C 5.222656 -9.953125 5.347656 -9.914062 5.453125 -9.84375 C 5.566406 -9.78125 5.65625 -9.6875 5.71875 -9.5625 Z M 2.890625 -3.484375 L 7.328125 -3.484375 L 5.09375 -8.515625 Z M 2.890625 -3.484375 "/></g></g></g><g fill="#c64fff" fill-opacity="1"><g transform="translate(213.294469, 265.988889)"><g><path d="M 1.796875 0.0625 C 1.617188 0.0625 1.476562 0.0078125 1.375 -0.09375 C 1.269531 -0.195312 1.21875 -0.335938 1.21875 -0.515625 L 1.21875 -9.3125 C 1.21875 -9.476562 1.269531 -9.613281 1.375 -9.71875 C 1.488281 -9.820312 1.632812 -9.875 1.8125 -9.875 L 5.125 -9.875 C 6.15625 -9.875 6.957031 -9.617188 7.53125 -9.109375 C 8.113281 -8.609375 8.40625 -7.894531 8.40625 -6.96875 C 8.40625 -6.050781 8.113281 -5.332031 7.53125 -4.8125 C 6.945312 -4.300781 6.144531 -4.046875 5.125 -4.046875 L 2.359375 -4.046875 L 2.359375 -0.515625 C 2.359375 -0.335938 2.304688 -0.195312 2.203125 -0.09375 C 2.109375 0.0078125 1.972656 0.0625 1.796875 0.0625 Z M 5.015625 -5 C 6.515625 -5 7.265625 -5.65625 7.265625 -6.96875 C 7.265625 -8.269531 6.515625 -8.921875 5.015625 -8.921875 L 2.359375 -8.921875 L 2.359375 -5 Z M 5.015625 -5 "/></g></g></g><g fill="#c64fff" fill-opacity="1"><g transform="translate(222.319428, 265.988889)"><g><path d="M 1.796875 0.0625 C 1.617188 0.0625 1.476562 0.0078125 1.375 -0.09375 C 1.269531 -0.195312 1.21875 -0.335938 1.21875 -0.515625 L 1.21875 -9.359375 C 1.21875 -9.535156 1.269531 -9.675781 1.375 -9.78125 C 1.476562 -9.882812 1.617188 -9.9375 1.796875 -9.9375 C 1.972656 -9.9375 2.109375 -9.882812 2.203125 -9.78125 C 2.304688 -9.675781 2.359375 -9.535156 2.359375 -9.359375 L 2.359375 -0.515625 C 2.359375 -0.335938 2.304688 -0.195312 2.203125 -0.09375 C 2.109375 0.0078125 1.972656 0.0625 1.796875 0.0625 Z M 1.796875 0.0625 "/></g></g></g><g clip-path="url(#d58f195885)"><g clip-path="url(#206e97e964)"><path fill="url(#bb2ed34db9)" d="M 228.128906 111.394531 L 147.132812 111.394531 L 147.132812 188.640625 L 228.128906 188.640625 Z M 228.128906 111.394531 " fill-rule="nonzero"/></g></g></svg>